inDegrees=no
num_controls=7
num_derivatives=13
num_iterations=123
num_multipliers=7
num_parameters=0
num_slacks=7
num_states=26
objective=0.453595
objective_accelerations=0.044737
objective_balance=0.000984
objective_effort=0.034562
objective_height=0.368934
objective_ligament=0.004378
solver_duration=1445.711219
status=Solve_Succeeded
success=true
DataType=double
version=3
OpenSimVersion=4.5
endheader
time	/jointset/ground_pelvis/pelvis_tilt/value	/jointset/ground_pelvis/pelvis_tx/value	/jointset/ground_pelvis/pelvis_ty/value	/jointset/hip_r/hip_flexion_r/value	/jointset/hip_r/hip_adduction_r/value	/jointset/hip_r/hip_rotation_r/value	/jointset/back/lumbar_extension/value	/jointset/patellofemoral_r/patellar_flexion_r/value	/jointset/knee_r/knee_flexion_r/value	/jointset/knee_r/knee_adduction_r/value	/jointset/knee_r/knee_rotation_r/value	/jointset/ankle_r/ankle_angle_r/value	/jointset/subtalar_r/subtalar_angle_r/value	/jointset/ground_pelvis/pelvis_tilt/speed	/jointset/ground_pelvis/pelvis_tx/speed	/jointset/ground_pelvis/pelvis_ty/speed	/jointset/hip_r/hip_flexion_r/speed	/jointset/hip_r/hip_adduction_r/speed	/jointset/hip_r/hip_rotation_r/speed	/jointset/back/lumbar_extension/speed	/jointset/patellofemoral_r/patellar_flexion_r/speed	/jointset/knee_r/knee_flexion_r/speed	/jointset/knee_r/knee_adduction_r/speed	/jointset/knee_r/knee_rotation_r/speed	/jointset/ankle_r/ankle_angle_r/speed	/jointset/subtalar_r/subtalar_angle_r/speed	/forceset/tau_hip_flexion_r	/forceset/tau_hip_adduction_r	/forceset/tau_hip_rotation_r	/forceset/tau_knee_flexion_r	/forceset/tau_ankle_angle_r	/forceset/tau_subtalar_angle_r	/forceset/tau_lumbar_extension	lambda_cid13_p0	lambda_cid14_p0	lambda_cid14_p1	lambda_cid14_p2	lambda_cid14_p3	lambda_cid14_p4	lambda_cid14_p5	/jointset/ground_pelvis/pelvis_tilt/accel	/jointset/ground_pelvis/pelvis_tx/accel	/jointset/ground_pelvis/pelvis_ty/accel	/jointset/hip_r/hip_flexion_r/accel	/jointset/hip_r/hip_adduction_r/accel	/jointset/hip_r/hip_rotation_r/accel	/jointset/back/lumbar_extension/accel	/jointset/patellofemoral_r/patellar_flexion_r/accel	/jointset/knee_r/knee_flexion_r/accel	/jointset/knee_r/knee_adduction_r/accel	/jointset/knee_r/knee_rotation_r/accel	/jointset/ankle_r/ankle_angle_r/accel	/jointset/subtalar_r/subtalar_angle_r/accel	gamma_cid13_p0	gamma_cid14_p0	gamma_cid14_p1	gamma_cid14_p2	gamma_cid14_p3	gamma_cid14_p4	gamma_cid14_p5
0	6.534840858318466e-05	0.1279032418323103	0.9343365195650924	0.1934211968871041	-0.2164288012089814	-0.2369123232163211	-0.2903787966825928	0.23117862733634	0.2311786273363406	0.1074768811478446	0.1615998138735443	0.089344008118978	0.07837925415540449	0	0	0	0	0	0	0	0	0	0	0	0	0	0.109534699613657	-0.04732138256263322	0.001014616470994899	-0.2529911036620857	0.1438671887619768	-0.07724268152088241	-0.0268617826675602	-29.50550956010051	0.2435425045719392	-29.93484893588648	1.117704926943555	-5.895240588540744	-611.8888603031696	45.12513658448641	-1.528862521262326	-1.58366451832661	-0.8000940817466005	8.988262995482941	0.05415077494494404	1.758545720887623	-6.043986877287421	9.709242235617278	9.709242235615777	-2.66181954243384	0.5477452386365671	2.906934039111678	0.9244922038390405	3.36812381911968e-08	1.303492548628492e-08	-2.682180746570636e-07	2.132945902007013e-07	1.723904465105872e-08	1.120090192501409e-07	-2.643884867170988e-07
0.01	-5.217467126240698e-06	0.1278246927579318	0.9342976858490636	0.1938585379251307	-0.2164245199128781	-0.2368250034514675	-0.2906824757741002	0.2316545576768458	0.2316545576768386	0.1073430039067743	0.1616245901967871	0.08948630770085426	0.07842651642466647	-0.0140230565276323	-0.01566850667072343	-0.007740827161270173	0.08706619488847094	0.0008375178789638497	0.01737527569163798	-0.06036049845264616	0.0947334720796548	0.09473347207966151	-0.02661179943519883	0.004935538310553619	0.02827714494755287	0.009376516073197276	0.1036329544132161	-0.05810294486718547	0.001564532042027875	-0.2449152767405625	0.1294124444157949	-0.06439787205411264	-0.02207224655322008	-29.51127229639514	-3.72969809234932	-24.66090755953682	-0.1698659941594005	-3.77457875658327	-613.42905604748	55.50559732794024	-1.32551094591444	-1.552244062866024	-0.7571672248374713	8.505495776246171	0.09574097506347214	1.713759866017677	-5.975783351973479	9.287503554742853	9.287503554744264	-2.636334228438272	0.4635408216058882	2.76069334209384	0.9328238975627564	4.004948163968885e-08	3.218624826788999e-09	-2.948373694629689e-07	2.358736881370264e-07	2.904539107135217e-08	1.321441290146658e-08	-2.891079025969147e-07
0.02	-0.0002133106535912808	0.1275906985525619	0.9341822258231179	0.1951544805201897	-0.2164124257018487	-0.2365665826551565	-0.2915785002546772	0.2330642435102628	0.2330642435102626	0.1069479138544853	0.1616981384420155	0.08990589645610865	0.07856526237236096	-0.02750546215130165	-0.03108902619828117	-0.01532526198333409	0.1717203114056194	0.001562582985578934	0.03422020629190734	-0.1184690778141046	0.1867510985834409	0.1867510985834411	-0.05224256224541415	0.009754384394751108	0.05545783467577591	0.01829673568650253	0.09773120921281671	-0.06888450717172791	0.002114447613124265	-0.2368394498190186	0.1149577000696243	-0.05155306258732825	-0.01728271043885529	-29.5280889569516	-7.627758080176799	-19.38819054185269	-1.440806948370683	-1.639423307652157	-613.7767142604556	65.63054913210357	-1.42073234046975	-1.534067089693464	-0.7688156139053504	8.505847321218445	0.03166022047519294	1.6524767026139	-5.59360305904988	9.166073120443546	9.166073120439391	-2.465612217437144	0.5244067933653388	2.687642995245721	0.8332329118606402	4.64177250881809e-08	-6.59767583270692e-09	-3.214566642688742e-07	2.584527860733514e-07	4.085173749164562e-08	-8.558019344720774e-08	-3.138273184767306e-07
0.03	-0.0005542608417333131	0.1272040936695409	0.933991402160654	0.1972855379733955	-0.216393640999185	-0.2361427543605649	-0.2930438843247719	0.235380959243507	0.235380959243514	0.1063013265080286	0.1618194959065608	0.09059237095975008	0.07879113702549871	-0.04063256112595586	-0.04615438705901789	-0.02283707248325511	0.2541067163515396	0.002190552252174785	0.05046144577767352	-0.1742242549274607	0.2761636477680316	0.2761636477680193	-0.07694352063244102	0.01446392599000756	0.08171094062172016	0.02684051931164679	0.09306067411042873	-0.06483695181780733	0.002330697094987574	-0.2325708904422583	0.1098461455103635	-0.05173842814563997	-0.0133111893257811	-29.55526099557864	-9.292078758086138	-19.70622643098844	-1.451645985781894	-1.031577187044911	-614.2679430718254	64.10312800853323	-1.250893342642684	-1.481127864156491	-0.7420215793181244	8.047368791577901	0.07779907923563194	1.597398030276847	-5.508952845894178	8.764576463493292	8.764576463493905	-2.452653679486089	0.4363006163713022	2.575229200860878	0.8592805292084237	4.936426463332242e-08	-1.491248175679867e-08	-3.251322860297934e-07	2.684062791571479e-07	4.923067134663981e-08	-1.664724836131062e-07	-3.216570244101388e-07
0.04	-0.001024920952956481	0.1266691637219339	0.9337255288309345	0.2002289258181158	-0.2163686898439574	-0.2355590235793698	-0.2950553157276836	0.2385789465978078	0.2385789465978075	0.1054116663716663	0.1619863633417999	0.09153759348416987	0.07910131540316133	-0.05344744676778857	-0.06075403911545921	-0.03033519543447458	0.3341863897094247	0.002795873498127689	0.06620070361219567	-0.2276785443774462	0.3630054227936804	0.363005422793672	-0.1008571202254927	0.01885637853588467	0.1072074388313484	0.03515748059147501	0.08839013900799032	-0.06078939646389476	0.00254694657678677	-0.2283023310655201	0.104734590951092	-0.05192379370396377	-0.009339668212739837	-29.59164699578345	-10.88778188312978	-20.02708530593558	-1.44508698635865	-0.413779382598636	-613.6675290901225	62.33895208251415	-1.358289673905461	-1.440925328834378	-0.7660781041650391	8.044501003611403	0.02713061634660387	1.552080372365094	-5.133425526375768	8.651918288655155	8.651918288654285	-2.308140458642111	0.4609889834894693	2.53632144798252	0.7878684427974344	5.224025358251857e-08	-2.319632902655219e-08	-3.283348423671047e-07	2.780994504914077e-07	5.753893690131855e-08	-2.469956538577104e-07	-3.291384889013531e-07
